<mxfile host="app.diagrams.net" modified="2023-12-20T12:48:19.795Z" agent="Mozilla/5.0 (Windows NT 10.0; Win64; x64) AppleWebKit/537.36 (KHTML, like Gecko) Chrome/120.0.0.0 Safari/537.36" etag="A-ryYcw9B3UTGkESjTEK" version="22.1.11" type="github">
  <diagram name="Page-1" id="Vy4SI-NchvsFxdAL21He">
    <mxGraphModel dx="1638" dy="2700" grid="1" gridSize="11" guides="1" tooltips="1" connect="1" arrows="1" fold="1" page="0" pageScale="1" pageWidth="850" pageHeight="1100" background="none" math="0" shadow="0">
      <root>
        <mxCell id="0" />
        <mxCell id="1" parent="0" />
        <mxCell id="5rkkUmGRQEtE6GXa4IXw-1" value="Arabs" style="text;strokeColor=none;fillColor=none;html=1;align=center;verticalAlign=middle;whiteSpace=wrap;rounded=0;fontSize=16;" vertex="1" parent="1">
          <mxGeometry x="88" y="-1848" width="77" height="44" as="geometry" />
        </mxCell>
        <mxCell id="5rkkUmGRQEtE6GXa4IXw-24" value="" style="shape=stencil(lZfbbtswDIafxrcEJep43XXvUaDpYixLijQ7vf2oGW4iuvqL3DnOR5mk+JPSJA9v+6fX3eT57XI+fd/9np8v+0m+TN7Px/3uPF/0aZLHSR5eTufdt/Pp5/F5+f361Mj29OP0q63wZ7GrlUJtVp7/Lm8ixfz/xdeFP8zHWz6Rdx1fyIUxXzIl3/EuUaxjg1wpcWfgA0kZGySNIHcGEsjx2CBmqn3IIUKX9O+S+hzl1ckPDURs0OqkpLGBqxRLn1UPv5Ap90mqQhkkiSnFnq9UgUNMoWx4uL6w5TMoCyaXLO9B2TGx4cua4hFv/MlUIuSd5Rn6z33NNV3A/DiTz7juyCifYnkP441seYZ82vjD0P8SLB9AffJaLTd8Bfl0H+QzQd5t9jcIXN/4U8hjni2P9VKM/6posD5TdpYvoAXxutp7F+X3Eh8V0EZgWAB+I+CABVNtgu4TmM4Nd5+ABfOmQHXMQAG4TUEXKHi/KWiBfNisz7jh3sVn26CL5h8IWCeM9BMg6wwDFaczTPodTmH1cTQlzdCLOsNACDpEcx9z0LYE9liHqO8NfMVJqlYFmgbUpvW0Ir2OnYN9TqvM1KmnDLJ6HXMrz3DONBV6yyN/6np6u/IOyKCNaTY8jFe7iPWn4PVrr3sHD0KNNxsAzx03bfC6AWhwtA/0Za11/kkA0fAVnY+rnQSBIvYnm7MlHNzKJzG8YH/uO99/yuvD9TLxMh8Oy13k9n97+dBXy8VFHv8B);lineShape=1;strokeColor=#FF757A;fontSize=16;" vertex="1" parent="1">
          <mxGeometry x="13.824070304714269" y="-1821.3853611516647" width="88.36798581199761" height="19.497390101928797" as="geometry" />
        </mxCell>
        <mxCell id="5rkkUmGRQEtE6GXa4IXw-33" value="" style="shape=stencil(7VnLUhtBDPwaX1XzluZMkv+gChNcIUAZ8vr7aGLG7Gh2m1CVQw7cjOneHUmt13gXLx5vLh/2u+Aen473X/Y/DldPN7v4YRfC4e5mfzw86add/LiLF9f3x/3n4/23u6vT3w+XDdk+fb3/3p7w88QTT640VnC/Tt84Ku7PF59O+NvD3YjnER+peoBPVNKA955SBQShPBKCJwEnqp7CeKJQyYM31ETtf0sTmDIiMAU/EFLBb6iUZCDkRJ63Cd45cm5gFA1MgGdKhlAoJUBwxCOBHTSCK3EeCYEiOFLJJKNfOVIE2siuO2VBKIAQM2U/vSFuE5o4i7UhZxCIQmIIWK5e9R2tW5+Dv0WIdSIAtyrBiyUgo5XgvCUE4FYfSaYjPVeFTcIY6VKpghxdJTBQayOIJWTkVo10tYSEveSLJSC1tsBNBOjW1CvpguCR+BJJngjIhkz+TW/Q4p6MDUyCEihTMG4V8iBwWnvTHAdAiOc6t8g4AZEO0mvEmaBuAHEIgYp5g2C1Zis+iV0s67WVZKxjwrAGhN7QOr4GckgYlEcDaqYIni/d42c8Nlhsj9YGhs4jdgZQfAAxVrxYPNKE4r3FF6BSHRmixaORQayoFV9BCRbbnBsetU4q8/MhPs54YC/3FFzaCzKgUOXJnyC+xeq/xQvjp/MHgOcVf6J+o/OXwQscOtlWOcUjPTAxWzyD86geZjzMxzifBz4/y2QvmpmJJ/2jcVPxU7wixk96yxBfpvgyrCdx0ptAe/2cj8D/bO1dzNtbApoTEgs0TAb8Q/y0HWgDQILzFMdB4mVJ2moYo4CkwIKrk0oeDyQBdgA9UTBjMveitE7QmjJqjhPuqdWKQucIJIqmOrPfuL5Tbc1CbhrPUBvTsPE0xMI1kFdm0owmlfft49lL79vH/799qLyjyWkHjQ6TlzSn0RVEuyCY9n0HOkm7gvCWgEbrkqftA7+B61T5PHSrVHsB1iINjNZeUIxaM6x8Ok04o1YP5/16vh9b3GehUtn2k9HoVPpMtk4IlhAZboHqJVO9XzbPdUKxgdM1DK2N2tHKOOV5D6fsdmE25kPqCbKO16FuDLTDU+oKHjVpFluUHIyBnt/kAs7Opmwx+FcuFJPFv5I5HCwe5AGfh8AFHm2Bro8sf/d8cSvnR1PwdOPq8FTu7DWC63vq1lW8s8+HW/Xbr/pfweuHl98Vrg+3t6efJZb/t79D6Fen3zDix98=);lineShape=1;strokeColor=#FF757A;fontSize=16;" vertex="1" parent="1">
          <mxGeometry x="-79.59339519619613" y="-1661.488384245862" width="35.18486253894995" height="54.08571733107197" as="geometry" />
        </mxCell>
      </root>
    </mxGraphModel>
  </diagram>
</mxfile>
